<?xml version="1.0" encoding="UTF-8" standalone="no"?>
<!-- Created with Inkscape (http://www.inkscape.org/) -->

<svg
   width="16"
   height="16"
   viewBox="0 0 16 16.000001"
   version="1.1"
   id="svg1"
   xml:space="preserve"
   inkscape:export-filename="kantele_a3.png"
   inkscape:export-xdpi="96"
   inkscape:export-ydpi="96"
   inkscape:version="1.4.2 (f4327f4, 2025-05-13)"
   sodipodi:docname="ocarina_dis.svg"
   xmlns:inkscape="http://www.inkscape.org/namespaces/inkscape"
   xmlns:sodipodi="http://sodipodi.sourceforge.net/DTD/sodipodi-0.dtd"
   xmlns="http://www.w3.org/2000/svg"
   xmlns:svg="http://www.w3.org/2000/svg"><sodipodi:namedview
     id="namedview1"
     pagecolor="#ffffff"
     bordercolor="#000000"
     borderopacity="0.25"
     inkscape:showpageshadow="2"
     inkscape:pageopacity="0.0"
     inkscape:pagecheckerboard="0"
     inkscape:deskcolor="#d1d1d1"
     inkscape:document-units="px"
     showgrid="true"
     inkscape:zoom="32"
     inkscape:cx="5.65625"
     inkscape:cy="6.140625"
     inkscape:window-width="1483"
     inkscape:window-height="1284"
     inkscape:window-x="62"
     inkscape:window-y="0"
     inkscape:window-maximized="0"
     inkscape:current-layer="layer1"><inkscape:grid
       id="grid1"
       units="px"
       originx="0"
       originy="0"
       spacingx="1"
       spacingy="1.0000001"
       empcolor="#0099e5"
       empopacity="0.30196078"
       color="#0099e5"
       opacity="0.14901961"
       empspacing="5"
       enabled="true"
       visible="true" /></sodipodi:namedview><defs
     id="defs1" /><g
     inkscape:label="图层 1"
     inkscape:groupmode="layer"
     id="layer1"><rect
       style="fill:#ff7926;fill-opacity:1;stroke:#a6a6a6;stroke-width:0.965958;stroke-dasharray:none;stroke-opacity:0.89411765"
       id="rect2-52"
       width="0.034041896"
       height="0.034041725"
       x="5.4829793"
       y="12.482979" /><rect
       style="fill:#ff7926;fill-opacity:1;stroke:#a6a6a6;stroke-width:0.965958;stroke-dasharray:none;stroke-opacity:0.89411765"
       id="rect2-52-2"
       width="0.034041896"
       height="0.034041725"
       x="1.4829791"
       y="12.482979" /><rect
       style="fill:#ff7926;fill-opacity:1;stroke:#a6a6a6;stroke-width:0.965958;stroke-dasharray:none;stroke-opacity:0.89411765"
       id="rect2-52-6"
       width="0.034041896"
       height="0.034041725"
       x="2.4829791"
       y="13.482979" /><rect
       style="fill:#ff7926;fill-opacity:1;stroke:#a6a6a6;stroke-width:0.965958;stroke-dasharray:none;stroke-opacity:0.89411765"
       id="rect2-52-1"
       width="0.034041896"
       height="0.034041725"
       x="5.4829793"
       y="11.482979" /><rect
       style="fill:#ff7926;fill-opacity:1;stroke:#a6a6a6;stroke-width:0.965958;stroke-dasharray:none;stroke-opacity:0.894118"
       id="rect2-52-1-8"
       width="0.034041896"
       height="0.034041725"
       x="7.4829788"
       y="10.482979" /><rect
       style="fill:#ff7926;fill-opacity:1;stroke:#a6a6a6;stroke-width:0.965958;stroke-dasharray:none;stroke-opacity:0.89411765"
       id="rect2-52-23"
       width="0.034041896"
       height="0.034041725"
       x="5.4829793"
       y="2.4829795" /><path
       style="fill:#ffffff;fill-opacity:0.996078;stroke:#ecc37f;stroke-width:0.00377953;stroke-dasharray:none;stroke-opacity:0.803758"
       d="M 7.0018898,9.4999367 V 9.0018898 H 7.4999367 7.9979836 V 9.4999367 9.9979836 H 7.4999367 7.0018898 Z m 0.515625,0 v -0.017578 h -0.017578 -0.017578 v 0.017578 0.017578 h 0.017578 0.017578 z"
       id="path3-50-8" /><path
       style="fill:#ffffff;fill-opacity:0.996078;stroke:#ecc37f;stroke-width:0.00377953;stroke-dasharray:none;stroke-opacity:0.803758"
       d="M 9.0018898,6.4999367 V 6.0018898 H 9.4999367 9.9979836 V 6.4999367 6.9979836 H 9.4999367 9.0018898 Z m 0.515625,0 v -0.017578 h -0.017578 -0.017578 v 0.017578 0.017578 h 0.017578 0.017578 z"
       id="path3-50-4" /><path
       style="fill:#ffffff;fill-opacity:0.996078;stroke:#ecc37f;stroke-width:0.00377953;stroke-dasharray:none;stroke-opacity:0.803758"
       d="M 11.00189,5.4999367 V 5.0018898 h 0.498047 0.498047 V 5.4999367 5.9979836 H 11.499937 11.00189 Z m 0.515625,0 v -0.017578 h -0.01758 -0.01758 v 0.017578 0.017578 h 0.01758 0.01758 z"
       id="path3-50-4-3" /><path
       style="fill:#ffffff;fill-opacity:0.996078;stroke:#ecc37f;stroke-width:0.00377953;stroke-dasharray:none;stroke-opacity:0.803758"
       d="M 11.00189,6.4999367 V 6.0018898 h 0.498047 0.498047 V 6.4999367 6.9979836 H 11.499937 11.00189 Z m 0.515625,0 v -0.017578 h -0.01758 -0.01758 v 0.017578 0.017578 h 0.01758 0.01758 z"
       id="path3-50-4-2" /><path
       style="fill:#ffffff;fill-opacity:0.996078;stroke:#ecc37f;stroke-width:0.00377953;stroke-dasharray:none;stroke-opacity:0.803758"
       d="M 11.00189,7.4999367 V 7.0018898 h 0.498047 0.498047 V 7.4999367 7.9979836 H 11.499937 11.00189 Z m 0.515625,0 v -0.017578 h -0.01758 -0.01758 v 0.017578 0.017578 h 0.01758 0.01758 z"
       id="path3-50-4-7" /><path
       style="fill:#ffffff;fill-opacity:0.996078;stroke:#ecc37f;stroke-width:0.00377953;stroke-dasharray:none;stroke-opacity:0.803758"
       d="M 11.00189,8.4999367 V 8.0018898 h 0.498047 0.498047 V 8.4999367 8.9979836 H 11.499937 11.00189 Z m 0.515625,0 v -0.017578 h -0.01758 -0.01758 v 0.017578 0.017578 h 0.01758 0.01758 z"
       id="path3-50-4-6" /><path
       style="fill:#ffffff;fill-opacity:0.996078;stroke:#ecc37f;stroke-width:0.00377953;stroke-dasharray:none;stroke-opacity:0.803758"
       d="M 11.00189,9.4999367 V 9.0018898 h 0.498047 0.498047 V 9.4999367 9.9979836 H 11.499937 11.00189 Z m 0.515625,0 v -0.017578 h -0.01758 -0.01758 v 0.017578 0.017578 h 0.01758 0.01758 z"
       id="path3-50-4-1" /><path
       style="fill:#ffffff;fill-opacity:0.996078;stroke:#ecc37f;stroke-width:0.00377953;stroke-dasharray:none;stroke-opacity:0.803758"
       d="M 11.00189,10.499937 V 10.00189 h 0.498047 0.498047 v 0.498047 0.498047 H 11.499937 11.00189 Z m 0.515625,0 v -0.01758 h -0.01758 -0.01758 v 0.01758 0.01758 h 0.01758 0.01758 z"
       id="path3-50-4-4" /><path
       style="fill:#ffffff;fill-opacity:0.996078;stroke:#ecc37f;stroke-width:0.00377953;stroke-dasharray:none;stroke-opacity:0.803758"
       d="M 13.00189,10.499937 V 10.00189 h 0.498047 0.498047 v 0.498047 0.498047 H 13.499937 13.00189 Z m 0.515625,0 v -0.01758 h -0.01758 -0.01758 v 0.01758 0.01758 h 0.01758 0.01758 z"
       id="path3-50-4-77" /><path
       style="fill:#ffffff;fill-opacity:0.996078;stroke:#ecc37f;stroke-width:0.00377953;stroke-dasharray:none;stroke-opacity:0.803758"
       d="M 13.00189,9.4999367 V 9.0018898 h 0.498047 0.498047 V 9.4999367 9.9979836 H 13.499937 13.00189 Z m 0.515625,0 v -0.017578 h -0.01758 -0.01758 v 0.017578 0.017578 h 0.01758 0.01758 z"
       id="path3-50-4-5" /><path
       style="fill:#ffffff;fill-opacity:0.996078;stroke:#ecc37f;stroke-width:0.00377953;stroke-dasharray:none;stroke-opacity:0.803758"
       d="M 13.00189,8.4999367 V 8.0018898 h 0.498047 0.498047 V 8.4999367 8.9979836 H 13.499937 13.00189 Z m 0.515625,0 v -0.017578 h -0.01758 -0.01758 v 0.017578 0.017578 h 0.01758 0.01758 z"
       id="path3-50-4-8" /><path
       style="fill:#ffffff;fill-opacity:0.996078;stroke:#ecc37f;stroke-width:0.00377953;stroke-dasharray:none;stroke-opacity:0.803758"
       d="M 13.00189,7.4999367 V 7.0018898 h 0.498047 0.498047 V 7.4999367 7.9979836 H 13.499937 13.00189 Z m 0.515625,0 v -0.017578 h -0.01758 -0.01758 v 0.017578 0.017578 h 0.01758 0.01758 z"
       id="path3-50-4-38" /><path
       style="fill:#ffffff;fill-opacity:0.996078;stroke:#ecc37f;stroke-width:0.00377953;stroke-dasharray:none;stroke-opacity:0.803758"
       d="M 13.00189,6.4999367 V 6.0018898 h 0.498047 0.498047 V 6.4999367 6.9979836 H 13.499937 13.00189 Z m 0.515625,0 v -0.017578 h -0.01758 -0.01758 v 0.017578 0.017578 h 0.01758 0.01758 z"
       id="path3-50-4-0" /><path
       style="fill:#ffffff;fill-opacity:0.996078;stroke:#ecc37f;stroke-width:0.00377953;stroke-dasharray:none;stroke-opacity:0.803758"
       d="M 13.00189,5.4999367 V 5.0018898 h 0.498047 0.498047 V 5.4999367 5.9979836 H 13.499937 13.00189 Z m 0.515625,0 v -0.017578 h -0.01758 -0.01758 v 0.017578 0.017578 h 0.01758 0.01758 z"
       id="path3-50-4-35" /><rect
       style="fill:#ff7926;fill-opacity:1;stroke:#a6a6a6;stroke-width:0.965958;stroke-dasharray:none;stroke-opacity:0.894118"
       id="rect2-52-23-5-8-6"
       width="0.034041896"
       height="0.034041725"
       x="10.482979"
       y="6.4829788" /><rect
       style="fill:#ff7926;fill-opacity:1;stroke:#a6a6a6;stroke-width:0.965958;stroke-dasharray:none;stroke-opacity:0.894118"
       id="rect2-52-23-5-8-3"
       width="0.034041896"
       height="0.034041725"
       x="10.482979"
       y="9.4829788" /><rect
       style="fill:#ff7926;fill-opacity:1;stroke:#a6a6a6;stroke-width:0.965958;stroke-dasharray:none;stroke-opacity:0.894118"
       id="rect2-52-23-5-8-66"
       width="0.034041896"
       height="0.034041725"
       x="12.482979"
       y="6.4829788" /><rect
       style="fill:#ff7926;fill-opacity:1;stroke:#a6a6a6;stroke-width:0.965958;stroke-dasharray:none;stroke-opacity:0.894118"
       id="rect2-52-23-5-8-63"
       width="0.034041896"
       height="0.034041725"
       x="12.482979"
       y="9.4829788" /><rect
       style="fill:#ff7926;fill-opacity:1;stroke:#a6a6a6;stroke-width:0.965958;stroke-dasharray:none;stroke-opacity:0.894118"
       id="rect2-52-23-5-8-9"
       width="0.034041896"
       height="0.034041725"
       x="14.482979"
       y="6.4829788" /><rect
       style="fill:#ff7926;fill-opacity:1;stroke:#a6a6a6;stroke-width:0.965958;stroke-dasharray:none;stroke-opacity:0.894118"
       id="rect2-52-23-5-8-8"
       width="0.034041896"
       height="0.034041725"
       x="14.482979"
       y="9.4829788" /><path
       style="fill:#ffffff;fill-opacity:0.996078;stroke:#ecc37f;stroke-width:0.00377953;stroke-dasharray:none;stroke-opacity:0.803758"
       d="M 4.0018898,13.499937 V 13.00189 h 0.4980469 0.4980469 v 0.498047 0.498047 H 4.4999367 4.0018898 Z m 0.515625,0 v -0.01758 h -0.017578 -0.017578 v 0.01758 0.01758 h 0.017578 0.017578 z"
       id="path3-5" /><path
       style="fill:#ffffff;fill-opacity:0.996078;stroke:#ecc37f;stroke-width:0.00377953;stroke-dasharray:none;stroke-opacity:0.803758"
       d="M 5.0018898,10.499937 V 10.00189 h 0.4980469 0.4980469 v 0.498047 0.498047 H 5.4999367 5.0018898 Z m 0.515625,0 v -0.01758 h -0.017578 -0.017578 v 0.01758 0.01758 h 0.017578 0.017578 z"
       id="path3-5-5" /><path
       style="fill:#ffffff;fill-opacity:0.996078;stroke:#ecc37f;stroke-width:0.00377953;stroke-dasharray:none;stroke-opacity:0.803758"
       d="M 5.0018898,9.4999367 V 9.0018898 H 5.4999367 5.9979836 V 9.4999367 9.9979836 H 5.4999367 5.0018898 Z m 0.515625,0 v -0.017578 h -0.017578 -0.017578 v 0.017578 0.017578 h 0.017578 0.017578 z"
       id="path3-5-52" /><path
       style="fill:#ffffff;fill-opacity:0.996078;stroke:#ecc37f;stroke-width:0.00377953;stroke-dasharray:none;stroke-opacity:0.803758"
       d="M 5.0018898,8.4999367 V 8.0018898 H 5.4999367 5.9979836 V 8.4999367 8.9979836 H 5.4999367 5.0018898 Z m 0.515625,0 v -0.017578 h -0.017578 -0.017578 v 0.017578 0.017578 h 0.017578 0.017578 z"
       id="path3-5-2" /><path
       style="fill:#ffffff;fill-opacity:0.996078;stroke:#ecc37f;stroke-width:0.00377953;stroke-dasharray:none;stroke-opacity:0.803758"
       d="M 5.0018898,7.4999367 V 7.0018898 H 5.4999367 5.9979836 V 7.4999367 7.9979836 H 5.4999367 5.0018898 Z m 0.515625,0 v -0.017578 h -0.017578 -0.017578 v 0.017578 0.017578 h 0.017578 0.017578 z"
       id="path3-5-6" /><path
       style="fill:#ffffff;fill-opacity:0.996078;stroke:#ecc37f;stroke-width:0.00377953;stroke-dasharray:none;stroke-opacity:0.803758"
       d="M 5.0018898,6.4999367 V 6.0018898 H 5.4999367 5.9979836 V 6.4999367 6.9979836 H 5.4999367 5.0018898 Z m 0.515625,0 v -0.017578 h -0.017578 -0.017578 v 0.017578 0.017578 h 0.017578 0.017578 z"
       id="path3-5-1" /><path
       style="fill:#ffffff;fill-opacity:0.996078;stroke:#ecc37f;stroke-width:0.00377953;stroke-dasharray:none;stroke-opacity:0.803758"
       d="M 5.0018898,5.4999367 V 5.0018898 H 5.4999367 5.9979836 V 5.4999367 5.9979836 H 5.4999367 5.0018898 Z m 0.515625,0 v -0.017578 h -0.017578 -0.017578 v 0.017578 0.017578 h 0.017578 0.017578 z"
       id="path3-5-9" /><path
       style="fill:#ffffff;fill-opacity:0.996078;stroke:#ecc37f;stroke-width:0.00377953;stroke-dasharray:none;stroke-opacity:0.803758"
       d="M 5.0018898,4.4999367 V 4.0018898 H 5.4999367 5.9979836 V 4.4999367 4.9979836 H 5.4999367 5.0018898 Z m 0.515625,0 v -0.017578 h -0.017578 -0.017578 v 0.017578 0.017578 h 0.017578 0.017578 z"
       id="path3-5-23" /><path
       style="fill:#ffffff;fill-opacity:0.996078;stroke:#ecc37f;stroke-width:0.00377953;stroke-dasharray:none;stroke-opacity:0.803758"
       d="M 5.0018898,3.4999367 V 3.0018898 H 5.4999367 5.9979836 V 3.4999367 3.9979836 H 5.4999367 5.0018898 Z m 0.515625,0 v -0.017578 h -0.017578 -0.017578 v 0.017578 0.017578 h 0.017578 0.017578 z"
       id="path3-5-3" /><rect
       style="fill:#ff7926;fill-opacity:1;stroke:#a6a6a6;stroke-width:0.965958;stroke-dasharray:none;stroke-opacity:0.894118"
       id="rect2-52-23-5-8"
       width="0.034041896"
       height="0.034041725"
       x="7.4829788"
       y="5.4829788" /><path
       style="fill:#ffffff;fill-opacity:0.996078;stroke:#ecc37f;stroke-width:0.00377953;stroke-dasharray:none;stroke-opacity:0.803758"
       d="M 3.0018898,13.499937 V 13.00189 h 0.4980469 0.4980469 v 0.498047 0.498047 H 3.4999367 3.0018898 Z m 0.515625,0 v -0.01758 h -0.017578 -0.017578 v 0.01758 0.01758 h 0.017578 0.017578 z"
       id="path3-5-7" /><path
       style="fill:#ffffff;fill-opacity:0.996078;stroke:#ecc37f;stroke-width:0.00377953;stroke-dasharray:none;stroke-opacity:0.803758"
       d="M 2.0018898,11.499937 V 11.00189 h 0.4980469 0.4980469 v 0.498047 0.498047 H 2.4999367 2.0018898 Z m 0.515625,0 v -0.01758 h -0.017578 -0.017578 v 0.01758 0.01758 h 0.017578 0.017578 z"
       id="path3-5-98" /><path
       style="fill:#ffffff;fill-opacity:0.996078;stroke:#ecc37f;stroke-width:0.00377953;stroke-dasharray:none;stroke-opacity:0.803758"
       d="M 3.0018898,10.499937 V 10.00189 h 0.4980469 0.4980469 v 0.498047 0.498047 H 3.4999367 3.0018898 Z m 0.515625,0 v -0.01758 h -0.017578 -0.017578 v 0.01758 0.01758 h 0.017578 0.017578 z"
       id="path3-5-8" /><path
       style="fill:#ffffff;fill-opacity:0.996078;stroke:#ecc37f;stroke-width:0.00377953;stroke-dasharray:none;stroke-opacity:0.803758"
       d="M 4.0018898,10.499937 V 10.00189 h 0.4980469 0.4980469 v 0.498047 0.498047 H 4.4999367 4.0018898 Z m 0.515625,0 v -0.01758 h -0.017578 -0.017578 v 0.01758 0.01758 h 0.017578 0.017578 z"
       id="path3-5-86" /><path
       style="fill:#ffffff;fill-opacity:0.996078;stroke:#ecc37f;stroke-width:0.00377953;stroke-dasharray:none;stroke-opacity:0.803758"
       d="M 7.0018898,9.4999367 V 9.0018898 H 7.4999367 7.9979836 V 9.4999367 9.9979836 H 7.4999367 7.0018898 Z m 0.515625,0 v -0.017578 h -0.017578 -0.017578 v 0.017578 0.017578 h 0.017578 0.017578 z"
       id="path3-5-0" /><path
       style="fill:#ffffff;fill-opacity:0.996078;stroke:#ecc37f;stroke-width:0.00377953;stroke-dasharray:none;stroke-opacity:0.803758"
       d="M 7.0018898,8.4999367 V 8.0018898 H 7.4999367 7.9979836 V 8.4999367 8.9979836 H 7.4999367 7.0018898 Z m 0.515625,0 v -0.017578 h -0.017578 -0.017578 v 0.017578 0.017578 h 0.017578 0.017578 z"
       id="path3-5-93" /><path
       style="fill:#ffffff;fill-opacity:0.996078;stroke:#ecc37f;stroke-width:0.00377953;stroke-dasharray:none;stroke-opacity:0.803758"
       d="M 7.0018898,7.4999367 V 7.0018898 H 7.4999367 7.9979836 V 7.4999367 7.9979836 H 7.4999367 7.0018898 Z m 0.515625,0 v -0.017578 h -0.017578 -0.017578 v 0.017578 0.017578 h 0.017578 0.017578 z"
       id="path3-5-66" /><path
       style="fill:#ffffff;fill-opacity:0.996078;stroke:#ecc37f;stroke-width:0.00377953;stroke-dasharray:none;stroke-opacity:0.803758"
       d="M 7.0018898,6.4999367 V 6.0018898 H 7.4999367 7.9979836 V 6.4999367 6.9979836 H 7.4999367 7.0018898 Z m 0.515625,0 v -0.017578 h -0.017578 -0.017578 v 0.017578 0.017578 h 0.017578 0.017578 z"
       id="path3-5-63" /><path
       style="fill:#ffffff;fill-opacity:0.996078;stroke:#ecc37f;stroke-width:0.00377953;stroke-dasharray:none;stroke-opacity:0.803758"
       d="M 8.0018898,5.4999367 V 5.0018898 H 8.4999367 8.9979836 V 5.4999367 5.9979836 H 8.4999367 8.0018898 Z m 0.515625,0 v -0.017578 h -0.017578 -0.017578 v 0.017578 0.017578 h 0.017578 0.017578 z"
       id="path3-5-91" /><path
       style="fill:#ffffff;fill-opacity:0.996078;stroke:#ecc37f;stroke-width:0.00377953;stroke-dasharray:none;stroke-opacity:0.803758"
       d="M 9.0018898,7.4999367 V 7.0018898 H 9.4999367 9.9979836 V 7.4999367 7.9979836 H 9.4999367 9.0018898 Z m 0.515625,0 v -0.017578 h -0.017578 -0.017578 v 0.017578 0.017578 h 0.017578 0.017578 z"
       id="path3-5-4" /><path
       style="fill:#ffffff;fill-opacity:0.996078;stroke:#ecc37f;stroke-width:0.00377953;stroke-dasharray:none;stroke-opacity:0.803758"
       d="M 9.0018898,8.4999367 V 8.0018898 H 9.4999367 9.9979836 V 8.4999367 8.9979836 H 9.4999367 9.0018898 Z m 0.515625,0 v -0.017578 h -0.017578 -0.017578 v 0.017578 0.017578 h 0.017578 0.017578 z"
       id="path3-5-61" /><path
       style="fill:#ffffff;fill-opacity:0.996078;stroke:#ecc37f;stroke-width:0.00377953;stroke-dasharray:none;stroke-opacity:0.803758"
       d="M 9.0018898,9.4999367 V 9.0018898 H 9.4999367 9.9979836 V 9.4999367 9.9979836 H 9.4999367 9.0018898 Z m 0.515625,0 v -0.017578 h -0.017578 -0.017578 v 0.017578 0.017578 h 0.017578 0.017578 z"
       id="path3-5-97" /><path
       style="fill:#ffffff;fill-opacity:0.996078;stroke:#ecc37f;stroke-width:0.00377953;stroke-dasharray:none;stroke-opacity:0.803758"
       d="M 8.0018898,10.499937 V 10.00189 h 0.4980469 0.4980469 v 0.498047 0.498047 H 8.4999367 8.0018898 Z m 0.515625,0 v -0.01758 h -0.017578 -0.017578 v 0.01758 0.01758 h 0.017578 0.017578 z"
       id="path3-5-01" /></g></svg>
