<?xml version="1.0" encoding="UTF-8" standalone="no"?>
<!-- Created with Inkscape (http://www.inkscape.org/) -->

<svg
   width="16"
   height="16"
   viewBox="0 0 16 16.000001"
   version="1.1"
   id="svg1"
   xml:space="preserve"
   inkscape:export-filename="kantele_b3.png"
   inkscape:export-xdpi="96"
   inkscape:export-ydpi="96"
   inkscape:version="1.4 (86a8ad7, 2024-10-11)"
   sodipodi:docname="kantele_b3.svg"
   xmlns:inkscape="http://www.inkscape.org/namespaces/inkscape"
   xmlns:sodipodi="http://sodipodi.sourceforge.net/DTD/sodipodi-0.dtd"
   xmlns="http://www.w3.org/2000/svg"
   xmlns:svg="http://www.w3.org/2000/svg"><sodipodi:namedview
     id="namedview1"
     pagecolor="#ffffff"
     bordercolor="#000000"
     borderopacity="0.25"
     inkscape:showpageshadow="2"
     inkscape:pageopacity="0.0"
     inkscape:pagecheckerboard="0"
     inkscape:deskcolor="#d1d1d1"
     inkscape:document-units="px"
     showgrid="true"
     inkscape:zoom="45.254834"
     inkscape:cx="7.9770484"
     inkscape:cy="7.0158251"
     inkscape:window-width="1442"
     inkscape:window-height="1041"
     inkscape:window-x="44"
     inkscape:window-y="0"
     inkscape:window-maximized="0"
     inkscape:current-layer="layer1"><inkscape:grid
       id="grid1"
       units="px"
       originx="0"
       originy="0"
       spacingx="1"
       spacingy="1.0000001"
       empcolor="#0099e5"
       empopacity="0.30196078"
       color="#0099e5"
       opacity="0.14901961"
       empspacing="5"
       enabled="true"
       visible="true" /></sodipodi:namedview><defs
     id="defs1" /><g
     inkscape:label="图层 1"
     inkscape:groupmode="layer"
     id="layer1"><rect
       style="fill:#ff7926;fill-opacity:1;stroke:#a6a6a6;stroke-width:0.965958;stroke-dasharray:none;stroke-opacity:0.89411765"
       id="rect2-52"
       width="0.034041896"
       height="0.034041725"
       x="5.4829793"
       y="12.482979" /><rect
       style="fill:#ff7926;fill-opacity:1;stroke:#a6a6a6;stroke-width:0.965958;stroke-dasharray:none;stroke-opacity:0.89411765"
       id="rect2-52-2"
       width="0.034041896"
       height="0.034041725"
       x="1.4829791"
       y="12.482979" /><rect
       style="fill:#ff7926;fill-opacity:1;stroke:#a6a6a6;stroke-width:0.965958;stroke-dasharray:none;stroke-opacity:0.89411765"
       id="rect2-52-6"
       width="0.034041896"
       height="0.034041725"
       x="2.4829791"
       y="13.482979" /><rect
       style="fill:#ff7926;fill-opacity:1;stroke:#a6a6a6;stroke-width:0.965958;stroke-dasharray:none;stroke-opacity:0.89411765"
       id="rect2-52-1"
       width="0.034041896"
       height="0.034041725"
       x="6.4829793"
       y="11.482979" /><rect
       style="fill:#ff7926;fill-opacity:1;stroke:#a6a6a6;stroke-width:0.965958;stroke-dasharray:none;stroke-opacity:0.89411765"
       id="rect2-52-23"
       width="0.034041896"
       height="0.034041725"
       x="6.4829793"
       y="2.4829795" /><rect
       style="fill:#ff7926;fill-opacity:1;stroke:#a6a6a6;stroke-width:0.965958;stroke-dasharray:none;stroke-opacity:0.89411765"
       id="rect2-52-23-9"
       width="0.034041896"
       height="0.034041725"
       x="12.482979"
       y="4.4829788" /><rect
       style="fill:#ff7926;fill-opacity:1;stroke:#a6a6a6;stroke-width:0.965958;stroke-dasharray:none;stroke-opacity:0.89411765"
       id="rect2-52-23-3"
       width="0.034041896"
       height="0.034041725"
       x="12.482979"
       y="9.4829788" /><rect
       style="fill:#ff7926;fill-opacity:1;stroke:#ecc37f;stroke-width:0.965958;stroke-dasharray:none;stroke-opacity:0.803758"
       id="rect2-52-3"
       width="0.034041896"
       height="0.034041725"
       x="6.4829793"
       y="3.4829791" /><path
       style="fill:#ffffff;fill-opacity:0.99607843;stroke:#ecc37f;stroke-width:0.00377953;stroke-dasharray:none;stroke-opacity:0.803758"
       d="M 6.001953,3.5 V 3.0019531 H 6.4999999 6.9980468 V 3.5 3.9980469 H 6.4999999 6.001953 Z m 0.515625,0 V 3.4824219 H 6.4999999 6.4824218 V 3.5 3.5175781 h 0.017578 0.017578 z"
       id="path3" /><path
       style="fill:#ffffff;fill-opacity:0.99607843;stroke:#ecc37f;stroke-width:0.00377953;stroke-dasharray:none;stroke-opacity:0.803758"
       d="M 6.0018897,4.4999367 V 4.0018898 H 6.4999366 6.9979835 V 4.4999367 4.9979836 H 6.4999366 6.0018897 Z m 0.515625,0 v -0.017578 h -0.017578 -0.017578 v 0.017578 0.017578 h 0.017578 0.017578 z"
       id="path3-3" /><path
       style="fill:#ffffff;fill-opacity:0.99607843;stroke:#ecc37f;stroke-width:0.00377953;stroke-dasharray:none;stroke-opacity:0.803758"
       d="M 6.0018897,5.4999367 V 5.0018898 H 6.4999366 6.9979835 V 5.4999367 5.9979836 H 6.4999366 6.0018897 Z m 0.515625,0 v -0.017578 h -0.017578 -0.017578 v 0.017578 0.017578 h 0.017578 0.017578 z"
       id="path3-5" /><path
       style="fill:#ffffff;fill-opacity:0.99607843;stroke:#ecc37f;stroke-width:0.00377953;stroke-dasharray:none;stroke-opacity:0.803758"
       d="M 6.0018897,6.4999367 V 6.0018898 H 6.4999366 6.9979835 V 6.4999367 6.9979836 H 6.4999366 6.0018897 Z m 0.515625,0 v -0.017578 h -0.017578 -0.017578 v 0.017578 0.017578 h 0.017578 0.017578 z"
       id="path3-0" /><path
       style="fill:#ffffff;fill-opacity:0.99607843;stroke:#ecc37f;stroke-width:0.00377953;stroke-dasharray:none;stroke-opacity:0.803758"
       d="M 6.0018897,7.4999367 V 7.0018898 H 6.4999366 6.9979835 V 7.4999367 7.9979836 H 6.4999366 6.0018897 Z m 0.515625,0 v -0.017578 h -0.017578 -0.017578 v 0.017578 0.017578 h 0.017578 0.017578 z"
       id="path3-50" /><path
       style="fill:#ffffff;fill-opacity:0.99607843;stroke:#ecc37f;stroke-width:0.00377953;stroke-dasharray:none;stroke-opacity:0.803758"
       d="M 6.0018897,8.4999367 V 8.0018898 H 6.4999366 6.9979835 V 8.4999367 8.9979836 H 6.4999366 6.0018897 Z m 0.515625,0 v -0.017578 h -0.017578 -0.017578 v 0.017578 0.017578 h 0.017578 0.017578 z"
       id="path3-1" /><path
       style="fill:#ffffff;fill-opacity:0.99607843;stroke:#ecc37f;stroke-width:0.00377953;stroke-dasharray:none;stroke-opacity:0.803758"
       d="M 9.0018901,6.499937 V 6.0018901 H 9.499937 9.9979839 V 6.499937 6.9979839 H 9.499937 9.0018901 Z m 0.515625,0 V 6.482359 h -0.017578 -0.017578 v 0.017578 0.017578 h 0.017578 0.017578 z"
       id="path3-1-18" /><path
       style="fill:#ffffff;fill-opacity:0.99607843;stroke:#ecc37f;stroke-width:0.00377953;stroke-dasharray:none;stroke-opacity:0.803758"
       d="M 9.0018898,5.499937 V 5.0018901 H 9.4999367 9.9979836 V 5.499937 5.9979839 H 9.4999367 9.0018898 Z m 0.515625,0 V 5.482359 h -0.017578 -0.017578 v 0.017578 0.017578 h 0.017578 0.017578 z"
       id="path3-1-18-2" /><path
       style="fill:#ffffff;fill-opacity:0.99607843;stroke:#ecc37f;stroke-width:0.00377953;stroke-dasharray:none;stroke-opacity:0.803758"
       d="m 9.0018898,8.4999371 v -0.498047 h 0.4980469 0.4980469 v 0.498047 0.498047 H 9.4999367 9.0018898 Z m 0.515625,0 v -0.01758 h -0.017578 -0.017578 v 0.01758 0.01758 h 0.017578 0.017578 z"
       id="path3-1-18-03" /><path
       style="fill:#ffffff;fill-opacity:0.99607843;stroke:#ecc37f;stroke-width:0.00377953;stroke-dasharray:none;stroke-opacity:0.803758"
       d="m 10.00189,9.4999371 v -0.498047 h 0.498047 0.498047 v 0.498047 0.498047 H 10.499937 10.00189 Z m 0.515625,0 v -0.01758 h -0.01758 -0.01758 v 0.01758 0.01758 h 0.01758 0.01758 z"
       id="path3-1-18-0" /><path
       style="fill:#ffffff;fill-opacity:0.99607843;stroke:#ecc37f;stroke-width:0.00377953;stroke-dasharray:none;stroke-opacity:0.803758"
       d="m 11.00189,9.4999371 v -0.498047 h 0.498047 0.498047 v 0.498047 0.498047 H 11.499937 11.00189 Z m 0.515625,0 v -0.01758 h -0.01758 -0.01758 v 0.01758 0.01758 h 0.01758 0.01758 z"
       id="path3-1-18-8" /><path
       style="fill:#ffffff;fill-opacity:0.99607843;stroke:#ecc37f;stroke-width:0.00377953;stroke-dasharray:none;stroke-opacity:0.803758"
       d="M 9.0018901,7.499937 V 7.0018901 H 9.499937 9.9979839 V 7.499937 7.9979839 H 9.499937 9.0018901 Z m 0.515625,0 V 7.482359 h -0.017578 -0.017578 v 0.017578 0.017578 h 0.017578 0.017578 z"
       id="path3-1-4" /><path
       style="fill:#ffffff;fill-opacity:0.99607843;stroke:#ecc37f;stroke-width:0.00377953;stroke-dasharray:none;stroke-opacity:0.803758"
       d="M 6.0018897,9.4999367 V 9.0018898 H 6.4999366 6.9979835 V 9.4999367 9.9979836 H 6.4999366 6.0018897 Z m 0.515625,0 v -0.017578 h -0.017578 -0.017578 v 0.017578 0.017578 h 0.017578 0.017578 z"
       id="path3-4" /><path
       style="fill:#ffffff;fill-opacity:0.99607843;stroke:#ecc37f;stroke-width:0.00377953;stroke-dasharray:none;stroke-opacity:0.803758"
       d="M 6.0018897,10.499937 V 10.00189 h 0.4980469 0.4980469 v 0.498047 0.498047 H 6.4999366 6.0018897 Z m 0.515625,0 v -0.01758 h -0.017578 -0.017578 v 0.01758 0.01758 h 0.017578 0.017578 z"
       id="path3-9" /><path
       style="fill:#ffffff;fill-opacity:0.99607843;stroke:#ecc37f;stroke-width:0.00377953;stroke-dasharray:none;stroke-opacity:0.803758"
       d="M 5.0018897,10.499937 V 10.00189 h 0.4980469 0.4980469 v 0.498047 0.498047 H 5.4999366 5.0018897 Z m 0.515625,0 v -0.01758 h -0.017578 -0.017578 v 0.01758 0.01758 h 0.017578 0.017578 z"
       id="path3-8" /><path
       style="fill:#ffffff;fill-opacity:0.99607843;stroke:#ecc37f;stroke-width:0.00377953;stroke-dasharray:none;stroke-opacity:0.803758"
       d="M 4.0018897,10.499937 V 10.00189 h 0.4980469 0.4980469 v 0.498047 0.498047 H 4.4999366 4.0018897 Z m 0.515625,0 v -0.01758 h -0.017578 -0.017578 v 0.01758 0.01758 h 0.017578 0.017578 z"
       id="path3-36" /><path
       style="fill:#ffffff;fill-opacity:0.99607843;stroke:#ecc37f;stroke-width:0.00377953;stroke-dasharray:none;stroke-opacity:0.803758"
       d="M 3.0018897,10.499937 V 10.00189 h 0.4980469 0.4980469 v 0.498047 0.498047 H 3.4999366 3.0018897 Z m 0.515625,0 v -0.01758 h -0.017578 -0.017578 v 0.01758 0.01758 h 0.017578 0.017578 z"
       id="path3-09" /><path
       style="fill:#ffffff;fill-opacity:0.99607843;stroke:#ecc37f;stroke-width:0.00377953;stroke-dasharray:none;stroke-opacity:0.803758"
       d="M 2.0018897,11.499937 V 11.00189 h 0.4980469 0.4980469 v 0.498047 0.498047 H 2.4999366 2.0018897 Z m 0.515625,0 v -0.01758 h -0.017578 -0.017578 v 0.01758 0.01758 h 0.017578 0.017578 z"
       id="path3-60" /><path
       style="fill:#ffffff;fill-opacity:0.99607843;stroke:#ecc37f;stroke-width:0.00377953;stroke-dasharray:none;stroke-opacity:0.803758"
       d="M 3.0018897,13.499937 V 13.00189 h 0.4980469 0.4980469 v 0.498047 0.498047 H 3.4999366 3.0018897 Z m 0.515625,0 v -0.01758 h -0.017578 -0.017578 v 0.01758 0.01758 h 0.017578 0.017578 z"
       id="path3-54" /><path
       style="fill:#ffffff;fill-opacity:0.99607843;stroke:#ecc37f;stroke-width:0.00377953;stroke-dasharray:none;stroke-opacity:0.803758"
       d="M 4.0018897,13.499937 V 13.00189 h 0.4980469 0.4980469 v 0.498047 0.498047 H 4.4999366 4.0018897 Z m 0.515625,0 v -0.01758 h -0.017578 -0.017578 v 0.01758 0.01758 h 0.017578 0.017578 z"
       id="path3-14" /><path
       style="fill:#ffffff;fill-opacity:0.99607843;stroke:#ecc37f;stroke-width:0.00377953;stroke-dasharray:none;stroke-opacity:0.803758"
       d="M 10.00189,4.499937 V 4.0018901 h 0.498047 0.498047 V 4.499937 4.9979839 H 10.499937 10.00189 Z m 0.515625,0 V 4.482359 h -0.01758 -0.01758 v 0.017578 0.017578 h 0.01758 0.01758 z"
       id="path3-1-18-6" /><path
       style="fill:#ffffff;fill-opacity:0.99607843;stroke:#ecc37f;stroke-width:0.00377953;stroke-dasharray:none;stroke-opacity:0.803758"
       d="M 11.00189,4.499937 V 4.0018901 h 0.498047 0.498047 V 4.499937 4.9979839 H 11.499937 11.00189 Z m 0.515625,0 V 4.482359 h -0.01758 -0.01758 v 0.017578 0.017578 h 0.01758 0.01758 z"
       id="path3-1-18-1" /><rect
       style="fill:#ff7926;fill-opacity:1;stroke:#a6a6a6;stroke-width:0.965958;stroke-dasharray:none;stroke-opacity:0.89411765"
       id="rect2-52-23-95-2"
       width="0.034041896"
       height="0.034041725"
       x="9.4829788"
       y="4.4829788" /><rect
       style="fill:#ff7926;fill-opacity:1;stroke:#a6a6a6;stroke-width:0.965958;stroke-dasharray:none;stroke-opacity:0.89411765"
       id="rect2-52-23-95-2-5"
       width="0.034041896"
       height="0.034041725"
       x="10.482979"
       y="11.482979" /><rect
       style="fill:#ff7926;fill-opacity:1;stroke:#a6a6a6;stroke-width:0.965958;stroke-dasharray:none;stroke-opacity:0.89411765"
       id="rect2-52-23-95-2-9"
       width="0.034041896"
       height="0.034041725"
       x="11.482979"
       y="11.482979" /><rect
       style="fill:#ff7926;fill-opacity:1;stroke:#a6a6a6;stroke-width:0.965958;stroke-dasharray:none;stroke-opacity:0.89411765"
       id="rect2-52-23-95-2-53"
       width="0.034041896"
       height="0.034041725"
       x="10.482979"
       y="12.482979" /><rect
       style="fill:#ff7926;fill-opacity:1;stroke:#a6a6a6;stroke-width:0.965958;stroke-dasharray:none;stroke-opacity:0.89411765"
       id="rect2-52-23-95-2-8"
       width="0.034041896"
       height="0.034041725"
       x="11.482979"
       y="12.482979" /><rect
       style="fill:#ff7926;fill-opacity:1;stroke:#a6a6a6;stroke-width:0.965958;stroke-dasharray:none;stroke-opacity:0.89411765"
       id="rect2-52-23-95-9"
       width="0.034041896"
       height="0.034041725"
       x="9.4829788"
       y="9.4829788" /><path
       style="fill:#ffffff;fill-opacity:0.99607843;stroke:#ecc37f;stroke-width:0.00377953;stroke-dasharray:none;stroke-opacity:0.803758"
       d="M 10.00189,6.499937 V 6.0018901 h 0.498047 0.498047 V 6.499937 6.9979839 H 10.499937 10.00189 Z m 0.515625,0 V 6.482359 h -0.01758 -0.01758 v 0.017578 0.017578 h 0.01758 0.01758 z"
       id="path3-1-18-25" /><path
       style="fill:#ffffff;fill-opacity:0.99607843;stroke:#ecc37f;stroke-width:0.00377953;stroke-dasharray:none;stroke-opacity:0.803758"
       d="M 11.00189,6.499937 V 6.0018901 h 0.498047 0.498047 V 6.499937 6.9979839 H 11.499937 11.00189 Z m 0.515625,0 V 6.482359 h -0.01758 -0.01758 v 0.017578 0.017578 h 0.01758 0.01758 z"
       id="path3-1-18-22" /><path
       style="fill:#ffffff;fill-opacity:0.99607843;stroke:#ecc37f;stroke-width:0.00377953;stroke-dasharray:none;stroke-opacity:0.803758"
       d="M 13.00189,5.499937 V 5.0018901 h 0.498047 0.498047 V 5.499937 5.9979839 H 13.499937 13.00189 Z m 0.515625,0 V 5.482359 h -0.01758 -0.01758 v 0.017578 0.017578 h 0.01758 0.01758 z"
       id="path3-1-18-69" /><path
       style="fill:#ffffff;fill-opacity:0.99607843;stroke:#ecc37f;stroke-width:0.00377953;stroke-dasharray:none;stroke-opacity:0.803758"
       d="M 13.00189,7.499937 V 7.0018901 h 0.498047 0.498047 V 7.499937 7.9979839 H 13.499937 13.00189 Z m 0.515625,0 V 7.482359 h -0.01758 -0.01758 v 0.017578 0.017578 h 0.01758 0.01758 z"
       id="path3-1-18-08" /><rect
       style="fill:#ff7926;fill-opacity:1;stroke:#a6a6a6;stroke-width:0.965958;stroke-dasharray:none;stroke-opacity:0.89411765"
       id="rect2-52-23-9-9"
       width="0.034041896"
       height="0.034041725"
       x="12.482979"
       y="6.4829788" /><rect
       style="fill:#ff7926;fill-opacity:1;stroke:#a6a6a6;stroke-width:0.965958;stroke-dasharray:none;stroke-opacity:0.89411765"
       id="rect2-52-23-9-6"
       width="0.034041896"
       height="0.034041725"
       x="13.482979"
       y="8.4829788" /></g></svg>
